<?xml version="1.0" standalone="no"?>
<!DOCTYPE svg PUBLIC "-//W3C//DTD SVG 20010904//EN"
 "http://www.w3.org/TR/2001/REC-SVG-20010904/DTD/svg10.dtd">
<svg version="1.0" xmlns="http://www.w3.org/2000/svg"
 width="1770.505516pt" height="331.260129pt" viewBox="0 0 1770.505516 331.260129"
 preserveAspectRatio="xMidYMid meet">
<g transform="translate(-0.994484,332.760129) scale(0.100000,-0.100000)"
fill="#000000" stroke="none">
<path d="M219 3316 c-56 -20 -105 -54 -143 -98 -70 -82 -66 23 -66 -1553 l0
-1422 30 -61 c35 -68 82 -115 149 -146 l46 -21 8630 0 8630 0 45 24 c61 32
116 86 148 146 l27 50 0 1435 0 1435 -24 47 c-30 61 -89 120 -149 150 l-47 23
-8620 2 c-7030 2 -8627 0 -8656 -11z m17266 -176 c70 -43 65 64 63 -1484 l-3
-1396 -38 -37 -37 -38 -8598 -2 c-8507 -3 -8597 -3 -8629 17 -18 10 -40 31
-50 47 -17 26 -18 94 -18 1423 0 1329 1 1397 18 1423 10 16 32 37 50 47 32 20
125 20 8621 20 l8589 0 32 -20z"/>
<path d="M1774 2840 c-1094 -5 -1112 -5 -1134 -25 -52 -47 -50 6 -50 -1151 0
-1062 0 -1077 20 -1109 43 -69 -32 -65 1200 -65 1206 0 1136 -3 1190 55 l25
27 3 1084 c2 959 0 1088 -13 1114 -18 36 -53 60 -97 69 -18 3 -533 4 -1144 1z
m407 -167 c227 -63 362 -194 415 -403 23 -87 23 -281 1 -373 -61 -251 -253
-397 -562 -427 -61 -5 -192 -10 -292 -10 l-183 0 0 -415 0 -415 -140 0 -140 0
0 1036 0 1035 413 -3 c383 -4 417 -6 488 -25z"/>
<path d="M1560 2086 l0 -386 223 0 c241 0 292 8 371 54 59 34 111 97 138 165
18 46 22 75 22 166 -1 121 -13 165 -63 238 -34 51 -88 90 -162 119 -49 20 -77
22 -291 26 l-238 4 0 -386z"/>
<path d="M5850 1680 l0 -920 195 0 195 0 2 277 3 278 240 -277 240 -277 238
-1 239 0 -120 132 c-66 73 -212 234 -325 358 l-205 225 177 180 c97 99 230
235 296 303 l120 122 -226 0 -226 0 -224 -241 -224 -241 -3 501 -2 501 -195 0
-195 0 0 -920z"/>
<path d="M15828 1680 l2 -920 200 0 200 0 0 358 c0 381 5 442 46 529 90 191
347 206 405 24 8 -24 14 -176 16 -474 l5 -437 205 0 205 0 -4 473 c-4 444 -6
477 -26 550 -55 199 -165 301 -353 327 -160 22 -308 -28 -429 -147 l-70 -69 0
353 0 353 -202 0 -203 0 3 -920z"/>
<path d="M10250 2515 c0 -14 368 -1630 391 -1717 l10 -38 249 0 250 0 7 27 c4
16 73 318 153 673 85 373 150 637 153 625 3 -11 70 -297 147 -635 78 -338 146
-632 151 -652 l10 -38 249 0 c228 0 249 1 254 18 8 25 396 1734 396 1744 0 4
-92 8 -204 8 -154 0 -205 -3 -208 -12 -3 -7 -69 -295 -148 -640 -79 -345 -145
-626 -148 -624 -2 2 -55 231 -118 507 -62 277 -128 564 -145 637 l-31 132
-209 0 c-115 0 -209 -1 -209 -3 0 -10 -290 -1270 -293 -1273 -2 -2 -68 279
-147 624 -79 345 -145 633 -148 640 -3 9 -54 12 -208 12 -177 0 -204 -2 -204
-15z"/>
<path d="M7890 2471 c0 -6 -27 -151 -60 -323 -33 -172 -60 -316 -60 -321 0 -4
71 -6 157 -5 l157 3 58 300 c31 165 59 312 62 328 l6 27 -160 0 c-93 0 -160
-4 -160 -9z"/>
<path d="M3587 2110 c-96 -9 -236 -32 -309 -51 l-38 -10 0 -159 0 -159 73 34
c179 82 448 97 576 32 52 -26 91 -89 91 -147 l0 -37 -207 -6 c-295 -8 -423
-41 -525 -136 -135 -124 -157 -395 -46 -561 75 -113 178 -168 328 -177 164
-10 278 34 385 149 l65 70 0 -96 0 -96 196 0 195 0 -3 473 -3 472 -28 81 c-74
219 -229 313 -542 327 -60 3 -154 1 -208 -3z m391 -818 c-9 -118 -72 -221
-163 -263 -93 -43 -226 -13 -267 61 -29 52 -22 159 12 195 56 60 104 72 289
74 l134 1 -5 -68z"/>
<path d="M5458 2109 c-113 -16 -213 -81 -284 -185 l-39 -57 -3 107 -3 106
-194 0 -195 0 0 -660 0 -660 194 0 194 0 4 368 c4 355 5 369 28 435 28 82 89
155 158 188 64 31 191 32 275 1 l57 -20 0 187 0 188 -52 7 c-60 7 -62 7 -140
-5z"/>
<path d="M9136 2110 c-85 -15 -167 -63 -240 -140 l-66 -70 0 90 0 90 -185 0
-185 0 0 -660 0 -660 184 0 185 0 3 402 c3 364 5 408 22 453 41 109 103 170
188 181 86 12 162 -38 189 -123 8 -26 13 -181 16 -476 l5 -437 179 0 179 0 0
459 c0 475 -4 538 -45 651 -23 65 -82 147 -129 179 -77 54 -200 78 -300 61z"/>
<path d="M13245 2109 c-101 -7 -258 -32 -327 -50 l-38 -10 0 -160 0 -159 48
24 c195 99 545 112 656 25 34 -27 52 -62 60 -121 l7 -48 -158 0 c-414 0 -605
-70 -689 -253 -27 -58 -29 -70 -29 -192 0 -125 1 -132 31 -195 58 -120 146
-193 274 -226 87 -22 242 -15 322 16 72 27 163 94 203 148 17 23 34 42 38 42
5 0 7 -42 6 -92 l-2 -93 202 -3 201 -2 0 442 c0 495 -4 530 -65 655 -76 153
-214 229 -462 253 -109 11 -135 11 -278 -1z m397 -819 c-9 -165 -120 -280
-269 -280 -35 0 -78 6 -96 14 -129 55 -138 238 -15 302 50 26 101 32 243 31
l140 -2 -3 -65z"/>
<path d="M14792 2109 c-314 -30 -465 -200 -424 -479 31 -217 150 -298 512
-350 211 -31 250 -53 250 -139 0 -57 -36 -97 -108 -117 -45 -13 -83 -16 -187
-11 -143 6 -235 26 -371 80 l-84 34 0 -158 0 -158 41 -11 c93 -25 220 -49 319
-61 127 -14 348 -6 439 16 247 60 370 238 331 480 -35 219 -139 287 -533 350
-87 14 -173 32 -192 39 -67 28 -85 100 -40 155 37 43 84 55 210 55 127 0 236
-20 375 -70 52 -19 96 -34 98 -34 1 0 2 71 2 159 l0 158 -32 6 c-18 4 -76 15
-129 26 -92 19 -303 42 -364 40 -16 -1 -67 -5 -113 -10z"/>
</g>
</svg>
